0
SECTION
2
HEADER
9
$INSUNITS
70
4
9
$ACADVER
1
AC1014
9
$HANDSEED
5
FFFF
0
ENDSEC
0
SECTION
2
TABLES
0
TABLE
2
VPORT
5
8
100
AcDbSymbolTable
0
ENDTAB
0
TABLE
2
LTYPE
5
5
100
AcDbSymbolTable
0
LTYPE
5
14
100
AcDbSymbolTableRecord
100
AcDbLinetypeTableRecord
2
BYBLOCK
70
0
0
LTYPE
5
15
100
AcDbSymbolTableRecord
100
AcDbLinetypeTableRecord
2
BYLAYER
70
0
0
ENDTAB
0
TABLE
2
LAYER
5
2
100
AcDbSymbolTable
70
2
0
LAYER
5
50
100
AcDbSymbolTableRecord
100
AcDbLayerTableRecord
2
0
70
0
6
CONTINUOUS
0
ENDTAB
0
TABLE
2
STYLE
5
3
100
AcDbSymbolTable
70
1
0
STYLE
5
11
100
AcDbSymbolTableRecord
100
AcDbTextStyleTableRecord
2
STANDARD
70
0
0
ENDTAB
0
TABLE
2
VIEW
5
6
100
AcDbSymbolTable
70
0
0
ENDTAB
0
TABLE
2
UCS
5
7
100
AcDbSymbolTable
70
0
0
ENDTAB
0
TABLE
2
APPID
5
9
100
AcDbSymbolTable
70
2
0
APPID
5
12
100
AcDbSymbolTableRecord
100
AcDbRegAppTableRecord
2
ACAD
70
0
0
ENDTAB
0
TABLE
2
DIMSTYLE
5
A
100
AcDbSymbolTable
70
1
0
ENDTAB
0
TABLE
2
BLOCK_RECORD
5
1
100
AcDbSymbolTable
70
1
0
BLOCK_RECORD
5
1F
100
AcDbSymbolTableRecord
100
AcDbBlockTableRecord
2
*MODEL_SPACE
0
BLOCK_RECORD
5
1B
100
AcDbSymbolTableRecord
100
AcDbBlockTableRecord
2
*PAPER_SPACE
0
ENDTAB
0
ENDSEC
0
SECTION
2
BLOCKS
0
BLOCK
5
20
100
AcDbEntity
100
AcDbBlockBegin
2
*MODEL_SPACE
0
ENDBLK
5
21
100
AcDbEntity
100
AcDbBlockEnd
0
BLOCK
5
1C
100
AcDbEntity
100
AcDbBlockBegin
2
*PAPER_SPACE
0
ENDBLK
5
1D
100
AcDbEntity
100
AcDbBlockEnd
0
ENDSEC
0
SECTION
2
ENTITIES
0
LWPOLYLINE
5
100
100
AcDbEntity
8
0
100
AcDbPolyline
90
8
70
1
43
0.0
10
3.8294594755390277
20
78.681604051114434
42
0.41421356237309503
10
-0.17054052446097312
20
74.681604051114434
10
-0.17054052446097145
20
23.681604051114419
42
0.41421356237309437
10
2.8294594755390268
20
20.681604051114419
10
65.829459475539025
20
20.681604051114427
42
0.41421356237309503
10
69.829459475539025
20
24.681604051114434
10
69.829459475539025
20
74.681604051114434
42
0.41421356237309503
10
65.829459475539025
20
78.681604051114434
0
LINE
5
101
100
AcDbEntity
8
0
100
AcDbLine
10
9.8370594209873836
20
77.181604051114419
30
0
11
59.821459475539029
21
77.181604051114434
31
0
0
LINE
5
102
100
AcDbEntity
8
0
100
AcDbLine
10
59.821459475539029
20
77.181604051114434
30
0
11
68.329459475539025
21
71.224238316026231
31
0
0
LINE
5
103
100
AcDbEntity
8
0
100
AcDbLine
10
59.821459475539029
20
22.181604051114434
30
0
11
9.8370594209873907
21
22.181604051114427
31
0
0
CIRCLE
5
104
100
AcDbEntity
8
0
100
AcDbCircle
10
66.123247754014415
20
23.276721436727144
30
0
40
0.99999999999999645
210
0
220
0
230
1
0
CIRCLE
5
105
100
AcDbEntity
8
0
100
AcDbCircle
10
2.4245768611517109
20
76.121686353181289
30
0
40
1.0000000000000018
210
0
220
0
230
1
0
CIRCLE
5
106
100
AcDbEntity
8
0
100
AcDbCircle
10
2.4245768611517109
20
23.276721436727122
30
0
40
1.0000000000000007
210
0
220
0
230
1
0
CIRCLE
5
107
100
AcDbEntity
8
0
100
AcDbCircle
10
66.123247754014415
20
76.121686353181289
30
0
40
0.99999999999999645
210
0
220
0
230
1
0
LWPOLYLINE
5
108
100
AcDbEntity
8
0
100
AcDbPolyline
90
8
70
1
43
0.0
10
-0.13054052446097586
20
74.681604051114434
10
-0.13054052446097142
20
23.681604051114419
42
0.41421356237309437
10
2.8294594755390268
20
20.721604051114426
10
65.829459475539025
20
20.721604051114429
42
0.41421356237309503
10
69.789459475539033
20
24.681604051114434
10
69.789459475539033
20
74.681604051114434
42
0.41421356237309503
10
65.829459475539025
20
78.641604051114427
10
3.8294594755390321
20
78.641604051114442
42
0.41421356237309537
0
LWPOLYLINE
5
109
100
AcDbEntity
8
0
100
AcDbPolyline
90
4
70
1
43
0.0
10
5.4676109639036055
20
26.301856561356249
10
35.46761096390361
20
26.301856561356249
10
35.46761096390361
20
56.301856561356246
10
5.4676109639036055
20
56.301856561356246
0
LINE
5
110
100
AcDbEntity
8
0
100
AcDbLine
10
69.789459475539033
20
28.191736566343003
30
0
11
68.329459475539025
21
28.191736566343
31
0
0
LWPOLYLINE
5
111
100
AcDbEntity
8
0
100
AcDbPolyline
90
4
70
1
43
0.0
10
59.40945947553903
20
28.191736566343003
10
39.40945947553903
20
28.191736566343003
10
39.40945947553903
20
76.19173656634301
10
59.40945947553903
20
76.19173656634301
0
LINE
5
112
100
AcDbEntity
8
0
100
AcDbLine
10
5.4676109639036055
20
27.809575806578657
30
0
11
7.6194594755390286
21
27.809575806578657
31
0
0
LINE
5
113
100
AcDbEntity
8
0
100
AcDbLine
10
3.8294594755390277
20
71.661604051114438
30
0
11
11.016187189293728
21
71.661604051114438
31
0
0
LINE
5
114
100
AcDbEntity
8
0
100
AcDbLine
10
11.016187189293728
20
65.661604051114438
30
0
11
3.8294594755390277
21
65.661604051114438
31
0
0
LINE
5
115
100
AcDbEntity
8
0
100
AcDbLine
10
3.8294594755390277
20
65.661604051114438
30
0
11
3.8294594755390277
21
71.661604051114438
31
0
0
LINE
5
116
100
AcDbEntity
8
0
100
AcDbLine
10
3.8294594755390277
20
78.681604051114434
30
0
11
3.8294594755390321
21
78.641604051114442
31
0
0
LINE
5
117
100
AcDbEntity
8
0
100
AcDbLine
10
3.8294594755390277
20
72.975037282763239
30
0
11
3.8294594755390277
21
71.661604051114438
31
0
0
LINE
5
118
100
AcDbEntity
8
0
100
AcDbLine
10
-0.17054052446097312
20
71.22451843723897
30
0
11
-0.13054052446097555
21
71.22451843723897
31
0
0
LINE
5
119
100
AcDbEntity
8
0
100
AcDbLine
10
3.8294594755390277
20
71.22451843723897
30
0
11
4.0894594755390266
21
71.22451843723897
31
0
0
LINE
5
120
100
AcDbEntity
8
0
100
AcDbLine
10
11.016187189293728
20
65.661604051114438
30
0
11
29.073159000695593
21
65.661604051114438
31
0
0
LINE
5
121
100
AcDbEntity
8
0
100
AcDbLine
10
29.073159000695593
20
71.668435639013367
30
0
11
29.073159000695593
21
76.102997218552972
31
0
0
LINE
5
122
100
AcDbEntity
8
0
100
AcDbLine
10
29.073159000695593
20
76.102997218552972
30
0
11
11.016187189293728
21
76.102997218552972
31
0
0
LINE
5
123
100
AcDbEntity
8
0
100
AcDbLine
10
11.016187189293728
20
76.102997218552972
30
0
11
11.016187189293728
21
71.661604051114438
31
0
0
LINE
5
124
100
AcDbEntity
8
0
100
AcDbLine
10
31.009459475539028
20
65.668435639013367
30
0
11
37.009459475539032
21
65.668435639013367
31
0
0
LINE
5
125
100
AcDbEntity
8
0
100
AcDbLine
10
37.009459475539032
20
65.668435639013367
30
0
11
37.009459475539032
21
71.668435639013367
31
0
0
LINE
5
126
100
AcDbEntity
8
0
100
AcDbLine
10
37.009459475539032
20
71.668435639013367
30
0
11
31.009459475539028
21
71.668435639013367
31
0
0
LINE
5
127
100
AcDbEntity
8
0
100
AcDbLine
10
31.009459475539028
20
71.668435639013367
30
0
11
29.073159000695593
21
71.668435639013367
31
0
0
LINE
5
128
100
AcDbEntity
8
0
100
AcDbLine
10
31.009459475539028
20
65.668435639013367
30
0
11
29.073159000695593
21
65.661604051114438
31
0
0
ENDSEC
0
SECTION
2
OBJECTS
0
DICTIONARY
5
C
100
AcDbDictionary
3
ACAD_GROUP
350
D
3
ACAD_MLINESTYLE
350
17
0
DICTIONARY
5
D
100
AcDbDictionary
0
DICTIONARY
5
1A
330
C
100
AcDbDictionary
0
DICTIONARY
5
17
100
AcDbDictionary
0
ENDSEC
0
EOF
